<svg xmlns="http://www.w3.org/2000/svg" width="62.999" height="62.985" viewBox="0 0 62.999 62.985">
  <path id="Icon_awesome-instagram" data-name="Icon awesome-instagram" d="M31.5,17.582A16.149,16.149,0,1,0,47.65,33.73,16.123,16.123,0,0,0,31.5,17.582Zm0,26.647A10.5,10.5,0,1,1,42,33.73,10.518,10.518,0,0,1,31.5,44.229ZM52.077,16.921a3.767,3.767,0,1,1-3.767-3.767A3.758,3.758,0,0,1,52.077,16.921Zm10.7,3.823c-.239-5.046-1.391-9.515-5.088-13.2s-8.152-4.835-13.2-5.088c-5.2-.3-20.787-.3-25.987,0C13.469,2.7,9,3.85,5.3,7.533S.469,15.684.216,20.73c-.3,5.2-.3,20.787,0,25.987.239,5.046,1.391,9.515,5.088,13.2S13.455,64.748,18.5,65c5.2.3,20.787.3,25.987,0,5.046-.239,9.515-1.391,13.2-5.088s4.835-8.152,5.088-13.2c.3-5.2.3-20.773,0-25.973ZM56.055,52.3a10.629,10.629,0,0,1-5.987,5.987c-4.146,1.644-13.984,1.265-18.566,1.265s-14.434.365-18.566-1.265A10.629,10.629,0,0,1,6.948,52.3C5.3,48.15,5.683,38.312,5.683,33.73S5.318,19.3,6.948,15.164a10.629,10.629,0,0,1,5.987-5.987C17.081,7.533,26.92,7.912,31.5,7.912s14.434-.365,18.566,1.265a10.629,10.629,0,0,1,5.987,5.987C57.7,19.31,57.319,29.148,57.319,33.73S57.7,48.164,56.055,52.3Z" transform="translate(0.005 -2.238)" fill="#fff"/>
</svg>
