<svg xmlns="http://www.w3.org/2000/svg" width="294.81" height="27.6" viewBox="0 0 294.81 27.6">
  <path id="Pfad_3" data-name="Pfad 3" d="M12.6,0,8.22-7.95H6.99V0H1.86V-21.06h8.61a9.479,9.479,0,0,1,4.245.87,5.993,5.993,0,0,1,2.625,2.385,6.655,6.655,0,0,1,.87,3.375,6.269,6.269,0,0,1-1.185,3.75,6.378,6.378,0,0,1-3.5,2.34L18.39,0ZM6.99-11.58h3.18a2.911,2.911,0,0,0,2.115-.69,2.6,2.6,0,0,0,.7-1.95,2.523,2.523,0,0,0-.7-1.89,2.911,2.911,0,0,0-2.115-.69H6.99ZM31.38.21a10.991,10.991,0,0,1-5.445-1.38A10.316,10.316,0,0,1,22-5.025,10.774,10.774,0,0,1,20.55-10.59,10.694,10.694,0,0,1,22-16.14a10.349,10.349,0,0,1,3.93-3.84,10.991,10.991,0,0,1,5.445-1.38,10.991,10.991,0,0,1,5.445,1.38,10.132,10.132,0,0,1,3.9,3.84,10.869,10.869,0,0,1,1.425,5.55,10.861,10.861,0,0,1-1.44,5.565,10.239,10.239,0,0,1-3.9,3.855A10.908,10.908,0,0,1,31.38.21Zm0-4.68a5.168,5.168,0,0,0,4.035-1.68,6.378,6.378,0,0,0,1.515-4.44,6.366,6.366,0,0,0-1.515-4.455A5.191,5.191,0,0,0,31.38-16.71a5.25,5.25,0,0,0-4.065,1.65A6.354,6.354,0,0,0,25.8-10.59a6.365,6.365,0,0,0,1.515,4.455A5.227,5.227,0,0,0,31.38-4.47ZM68.85-21.06V0H63.72V-12.63L59.01,0H54.87L50.13-12.66V0H45V-21.06h6.06L56.97-6.48l5.85-14.58ZM85.65-3.72H77.79L76.53,0H71.16l7.62-21.06h5.94L92.34,0H86.91ZM84.33-7.68l-2.61-7.71L79.14-7.68ZM113.49,0h-5.13L99.78-12.99V0H94.65V-21.06h5.13l8.58,13.05V-21.06h5.13Zm24.06-14.4a3.837,3.837,0,0,0-1.635-1.605,5.35,5.35,0,0,0-2.5-.555,5.154,5.154,0,0,0-3.99,1.635,6.2,6.2,0,0,0-1.5,4.365,6.28,6.28,0,0,0,1.575,4.545A5.737,5.737,0,0,0,133.83-4.38a5.243,5.243,0,0,0,3.195-.96,5.441,5.441,0,0,0,1.9-2.76h-6.51v-3.78h11.16v4.77a10.063,10.063,0,0,1-1.935,3.57A10.209,10.209,0,0,1,138.18-.87,10.71,10.71,0,0,1,133.44.15a11.22,11.22,0,0,1-5.565-1.365,9.723,9.723,0,0,1-3.81-3.8,11.136,11.136,0,0,1-1.365-5.55,11.22,11.22,0,0,1,1.365-5.565,9.723,9.723,0,0,1,3.795-3.81,11.136,11.136,0,0,1,5.55-1.365,10.782,10.782,0,0,1,6.375,1.83,8.636,8.636,0,0,1,3.435,5.07ZM156.39.21a10.992,10.992,0,0,1-5.445-1.38,10.316,10.316,0,0,1-3.93-3.855,10.774,10.774,0,0,1-1.455-5.565,10.694,10.694,0,0,1,1.455-5.55,10.348,10.348,0,0,1,3.93-3.84,10.992,10.992,0,0,1,5.445-1.38,10.991,10.991,0,0,1,5.445,1.38,10.132,10.132,0,0,1,3.9,3.84,10.869,10.869,0,0,1,1.425,5.55,10.861,10.861,0,0,1-1.44,5.565,10.239,10.239,0,0,1-3.9,3.855A10.908,10.908,0,0,1,156.39.21Zm0-4.68a5.168,5.168,0,0,0,4.035-1.68,6.378,6.378,0,0,0,1.515-4.44,6.366,6.366,0,0,0-1.515-4.455,5.191,5.191,0,0,0-4.035-1.665,5.25,5.25,0,0,0-4.065,1.65,6.354,6.354,0,0,0-1.515,4.47,6.366,6.366,0,0,0,1.515,4.455A5.227,5.227,0,0,0,156.39-4.47Zm-3.03-18.51a2.119,2.119,0,0,1-1.56-.63,2.119,2.119,0,0,1-.63-1.56,2.169,2.169,0,0,1,.63-1.575,2.094,2.094,0,0,1,1.56-.645,2.155,2.155,0,0,1,1.59.63,2.155,2.155,0,0,1,.63,1.59,2.094,2.094,0,0,1-.645,1.56A2.169,2.169,0,0,1,153.36-22.98Zm6,0a2.119,2.119,0,0,1-1.56-.63,2.119,2.119,0,0,1-.63-1.56,2.169,2.169,0,0,1,.63-1.575,2.094,2.094,0,0,1,1.56-.645,2.155,2.155,0,0,1,1.59.63,2.155,2.155,0,0,1,.63,1.59,2.094,2.094,0,0,1-.645,1.56A2.169,2.169,0,0,1,159.36-22.98Zm25.8,1.92v4.11h-5.58V0h-5.13V-16.95h-5.58v-4.11ZM193.2-4.2h9.06V0H187.38V-3.9l9-12.96h-9v-4.2h14.88v3.9Zm36.27-16.86V0h-5.13V-12.63L219.63,0h-4.14l-4.74-12.66V0h-5.13V-21.06h6.06l5.91,14.58,5.85-14.58Zm16.8,17.34h-7.86L237.15,0h-5.37l7.62-21.06h5.94L252.96,0h-5.43Zm-1.32-3.96-2.61-7.71-2.58,7.71ZM274.11,0h-5.13L260.4-12.99V0h-5.13V-21.06h5.13l8.58,13.05V-21.06h5.13Zm22.56,0h-5.13l-8.58-12.99V0h-5.13V-21.06h5.13l8.58,13.05V-21.06h5.13Z" transform="translate(-1.86 27.39)" fill="#3b5999"/>
</svg>
