<svg xmlns="http://www.w3.org/2000/svg" width="82.694" height="57.793" viewBox="0 0 82.694 57.793">
  <path id="Icon_simple-youtube" data-name="Icon simple-youtube" d="M80.975,14.348a10.365,10.365,0,0,0-7.2-7.2C67.332,5.424,41.391,5.424,41.391,5.424S15.515,5.39,9,7.151a10.365,10.365,0,0,0-7.2,7.2,107.7,107.7,0,0,0-1.8,20.009,107.7,107.7,0,0,0,1.8,19.933,10.365,10.365,0,0,0,7.2,7.2c6.439,1.73,32.387,1.73,32.387,1.73s25.872,0,32.387-1.73a10.365,10.365,0,0,0,7.2-7.2A107.7,107.7,0,0,0,82.7,34.357a107.7,107.7,0,0,0-1.723-20.009ZM33.112,46.734V21.941L54.7,34.357Z" transform="translate(-0.007 -5.424)" fill="#3b5999"/>
</svg>
